<svg class="main-svg" xmlns="http://www.w3.org/2000/svg" xmlns:xlink="http://www.w3.org/1999/xlink" width="1200" height="800" style="" viewBox="0 0 1200 800"><rect x="0" y="0" width="1200" height="800" style="fill: rgb(255, 255, 255); fill-opacity: 1;"/><defs id="defs-f51dd3"><g class="clips"><clipPath id="clipf51dd3xyplot" class="plotclip"><rect width="943" height="660"/></clipPath><clipPath class="axesclip" id="clipf51dd3x"><rect x="80" y="0" width="943" height="800"/></clipPath><clipPath class="axesclip" id="clipf51dd3y"><rect x="0" y="60" width="1200" height="660"/></clipPath><clipPath class="axesclip" id="clipf51dd3xy"><rect x="80" y="60" width="943" height="660"/></clipPath></g><g class="gradients"/></defs><g class="bglayer"/><g class="layer-below"><g class="imagelayer"/><g class="shapelayer"/></g><g class="cartesianlayer"><g class="subplot xy"><g class="layer-subplot"><g class="shapelayer"/><g class="imagelayer"/></g><g class="gridlayer"><g class="x"><path class="xgrid crisp" transform="translate(261.63,0)" d="M0,60v660" style="stroke: rgb(235, 240, 248); stroke-opacity: 1; stroke-width: 1px;"/><path class="xgrid crisp" transform="translate(444.23,0)" d="M0,60v660" style="stroke: rgb(235, 240, 248); stroke-opacity: 1; stroke-width: 1px;"/><path class="xgrid crisp" transform="translate(626.83,0)" d="M0,60v660" style="stroke: rgb(235, 240, 248); stroke-opacity: 1; stroke-width: 1px;"/><path class="xgrid crisp" transform="translate(809.43,0)" d="M0,60v660" style="stroke: rgb(235, 240, 248); stroke-opacity: 1; stroke-width: 1px;"/><path class="xgrid crisp" transform="translate(992.04,0)" d="M0,60v660" style="stroke: rgb(235, 240, 248); stroke-opacity: 1; stroke-width: 1px;"/></g><g class="y"><path class="ygrid crisp" transform="translate(0,568.2)" d="M80,0h943" style="stroke: rgb(235, 240, 248); stroke-opacity: 1; stroke-width: 1px;"/><path class="ygrid crisp" transform="translate(0,449.4)" d="M80,0h943" style="stroke: rgb(235, 240, 248); stroke-opacity: 1; stroke-width: 1px;"/><path class="ygrid crisp" transform="translate(0,330.6)" d="M80,0h943" style="stroke: rgb(235, 240, 248); stroke-opacity: 1; stroke-width: 1px;"/><path class="ygrid crisp" transform="translate(0,211.8)" d="M80,0h943" style="stroke: rgb(235, 240, 248); stroke-opacity: 1; stroke-width: 1px;"/><path class="ygrid crisp" transform="translate(0,93)" d="M80,0h943" style="stroke: rgb(235, 240, 248); stroke-opacity: 1; stroke-width: 1px;"/></g></g><g class="zerolinelayer"><path class="yzl zl crisp" transform="translate(0,687)" d="M80,0h943" style="stroke: rgb(235, 240, 248); stroke-opacity: 1; stroke-width: 2px;"/></g><path class="xlines-below"/><path class="ylines-below"/><g class="overlines-below"/><g class="xaxislayer-below"/><g class="yaxislayer-below"/><g class="overaxes-below"/><g class="plot" transform="translate(80,60)" clip-path="url('#clipf51dd3xyplot')"><g class="scatterlayer mlayer"><g class="trace scatter trace9006c9" style="stroke-miterlimit: 2; opacity: 1;"><g class="fills"/><g class="errorbars"/><g class="lines"><path class="js-line" d="M0,33L3.23,36.25L5.1,33L12.67,33L13.54,36.25L26.4,33L31.39,33L51.22,33L53.62,34.63L55,33L62.21,33L74.89,33L84.52,34.63L90.58,33L92.35,34.63L103.62,33L107.72,33L144.6,33L171.2,34.63L193.94,33L199.12,34.63L201.29,39.51L237.34,33L265.58,33L271.65,34.63L273.46,33L280.75,33L310.65,33L311.65,34.63L317.58,41.14L317.65,33L354.09,33L354.1,34.63L354.12,33L354.12,34.63L357.96,33L358.72,34.63L360.88,33L380.91,33L385.38,41.14L387.14,39.51L387.29,33L422.93,33L424.47,34.63L424.88,33L425.97,33L428.7,33L436.12,34.63L438.02,37.88L438.15,33L439.52,33L443.91,34.63L451.06,33L457.43,33L458.39,34.63L459.84,33L512.08,33L517.96,39.51L520.13,33L537.92,36.25L542.35,33L547.31,33L569.61,33L590.81,34.63L599.37,33L600.87,34.63L610.22,33L624.44,33L722.26,33L723.86,34.63L724.69,33L728.02,33L730.33,34.63L736.82,41.14L737.58,33L738.35,33L738.73,39.51L740.07,33L750.03,33L750.72,39.51L753.87,34.63L755.9,33L756.12,33L757.43,34.63L757.59,39.51L759.28,34.63L761.99,33L763.37,33L763.56,37.88L766.84,33L768.8,36.25L770.16,33L790.43,33L792.37,39.51L793.8,33L794.71,33L795.07,41.14L795.55,33L797.25,33L799.26,41.14L801.04,33L803.83,33L812.29,33L815.56,36.25L817.9,33L822.06,33L838.03,33L840.58,34.63L841.65,34.63L842.42,37.88L852.86,33L854.39,37.88L854.47,33L858.1,33L863.05,33L863.07,34.63L864.56,33L865,33L867.63,34.63L869.24,33L874.76,33L874.77,39.51L875.33,33L876.35,34.63L878.89,33L881.29,33L882.76,37.88L883.35,33L888.01,33L888.25,37.88L890.91,41.14L894.98,33L899.57,33L899.88,41.14L901.14,34.63L903.58,33L904.86,33L904.94,37.88L905.23,33L909.35,33L921.72,33L923.11,34.63L923.35,33L924.99,33L927.61,33L927.62,34.63L929.58,33L931.3,36.25L931.38,33L932.98,37.88L934.63,37.88L936.05,33L936.27,37.88L936.94,33L940.33,33L941.09,34.63L942.36,33L942.55,39.51L943,33" style="vector-effect: non-scaling-stroke; fill: none; stroke: rgb(71, 92, 118); stroke-opacity: 1; stroke-width: 2px; opacity: 1;"/></g><g class="points"/><g class="text"/></g><g class="trace scatter trace195fa1" style="stroke-miterlimit: 2; opacity: 1;"><g class="fills"/><g class="errorbars"/><g class="lines"><path class="js-line" d="M0,623.49L3.23,625.48L5.1,622.41L6.58,621.14L8.51,625.25L8.51,626.5L8.93,626.18L12.67,627L13.54,626.27L24.42,621L26.4,623.71L31.39,627L36.32,627L49.77,620.99L51.22,623.84L53.62,621.58L54.65,627L54.66,624.68L55,625.07L62.21,625.26L64.47,626.4L74.89,625.14L84.52,624.9L90.58,620.95L92.35,622.52L101.64,621.24L103.62,621.92L107.72,620.95L113.31,625.08L113.32,626.26L114,623.59L119.35,627L119.87,626.17L137.04,621.35L137.85,622.17L137.95,621.5L140.54,622.13L141.21,624.21L144.14,623.5L144.6,621L171.2,627L186.76,625.83L193.94,621.68L199.12,621.74L201.29,622.53L237.34,623.09L256.35,622.4L265.58,624.57L271.65,621.46L273.46,621.83L280.75,625.66L284.45,623.53L292.1,621.92L293.63,621.62L298.74,627L310.65,625.93L311.65,622.51L317.58,621.39L317.65,622.47L318.35,625.45L321.28,627L338.71,621.17L339.25,625.84L339.77,621.14L340.37,627L343.25,621.15L343.6,623.19L346.26,623.51L353.55,627L354.09,623.01L354.12,627L357.96,627L358.72,621.45L360.88,624.58L370.29,627L373.82,624.32L379.13,627L380.77,625.45L380.91,627L385.38,621.41L387.14,623.03L387.29,627L401.04,627L405.7,625.27L418.79,627L422.93,625.03L424.47,627L424.88,622.01L426.21,623.81L428.7,623.86L436.12,627L438.02,622.21L438.15,627L439.52,627L443.91,625.23L451.04,627L451.06,623.89L457.43,627L458.39,622.03L459.84,623.44L467.07,621.12L467.07,623.47L473.96,623.81L487.74,621.09L512.08,627L517.96,622.29L520.13,627L537.92,624.62L542.35,627L547.31,627L555.39,624.32L569.61,621.88L590.81,627L596.61,622.25L596.64,621.12L599.1,627L599.37,621.12L600.87,623.75L610.22,627L624.44,627L630.48,627L631.36,623.01L632.28,622.96L638.98,627L641.33,627L645.07,622.36L651.93,627L661.76,627L680.35,623.33L682.03,627L687.08,623.36L690.82,627L697.62,627L701.93,621.6L706.5,627L707.88,622.25L711.87,622.79L721.92,622.63L722.26,627L723.86,627L728.04,627L728.13,621.18L736.82,621.7L737.38,627L737.58,627L738.35,621.92L738.73,627L740.07,627L740.24,627L741.9,622.01L743.81,627L745.02,627L748.41,621.6L748.42,627L759.36,627L761.43,620.94L761.99,627L763.37,627L772.77,627L773.58,621L777.44,620.81L778.86,627L943,627" style="vector-effect: non-scaling-stroke; fill: none; stroke: rgb(250, 211, 102); stroke-opacity: 1; stroke-width: 2px; opacity: 1;"/></g><g class="points"/><g class="text"/></g></g></g><g class="overplot"/><path class="xlines-above crisp" d="M0,0" style="fill: none;"/><path class="ylines-above crisp" d="M0,0" style="fill: none;"/><g class="overlines-above"/><g class="xaxislayer-above"><g class="xtick"><text text-anchor="middle" x="0" y="733" transform="translate(261.63,0)" style="font-family: 'Open Sans', verdana, arial, sans-serif; font-size: 12px; fill: rgb(42, 63, 95); fill-opacity: 1; white-space: pre;">2M</text></g><g class="xtick"><text text-anchor="middle" x="0" y="733" transform="translate(444.23,0)" style="font-family: 'Open Sans', verdana, arial, sans-serif; font-size: 12px; fill: rgb(42, 63, 95); fill-opacity: 1; white-space: pre;">4M</text></g><g class="xtick"><text text-anchor="middle" x="0" y="733" transform="translate(626.83,0)" style="font-family: 'Open Sans', verdana, arial, sans-serif; font-size: 12px; fill: rgb(42, 63, 95); fill-opacity: 1; white-space: pre;">6M</text></g><g class="xtick"><text text-anchor="middle" x="0" y="733" transform="translate(809.43,0)" style="font-family: 'Open Sans', verdana, arial, sans-serif; font-size: 12px; fill: rgb(42, 63, 95); fill-opacity: 1; white-space: pre;">8M</text></g><g class="xtick"><text text-anchor="middle" x="0" y="733" transform="translate(992.04,0)" style="font-family: 'Open Sans', verdana, arial, sans-serif; font-size: 12px; fill: rgb(42, 63, 95); fill-opacity: 1; white-space: pre;">10M</text></g></g><g class="yaxislayer-above"><g class="ytick"><text text-anchor="end" x="79" y="4.199999999999999" transform="translate(0,687)" style="font-family: 'Open Sans', verdana, arial, sans-serif; font-size: 12px; fill: rgb(42, 63, 95); fill-opacity: 1; white-space: pre;">0</text></g><g class="ytick"><text text-anchor="end" x="79" y="4.199999999999999" transform="translate(0,568.2)" style="font-family: 'Open Sans', verdana, arial, sans-serif; font-size: 12px; fill: rgb(42, 63, 95); fill-opacity: 1; white-space: pre;">0.2</text></g><g class="ytick"><text text-anchor="end" x="79" y="4.199999999999999" transform="translate(0,449.4)" style="font-family: 'Open Sans', verdana, arial, sans-serif; font-size: 12px; fill: rgb(42, 63, 95); fill-opacity: 1; white-space: pre;">0.4</text></g><g class="ytick"><text text-anchor="end" x="79" y="4.199999999999999" transform="translate(0,330.6)" style="font-family: 'Open Sans', verdana, arial, sans-serif; font-size: 12px; fill: rgb(42, 63, 95); fill-opacity: 1; white-space: pre;">0.6</text></g><g class="ytick"><text text-anchor="end" x="79" y="4.199999999999999" transform="translate(0,211.8)" style="font-family: 'Open Sans', verdana, arial, sans-serif; font-size: 12px; fill: rgb(42, 63, 95); fill-opacity: 1; white-space: pre;">0.8</text></g><g class="ytick"><text text-anchor="end" x="79" y="4.199999999999999" transform="translate(0,93)" style="font-family: 'Open Sans', verdana, arial, sans-serif; font-size: 12px; fill: rgb(42, 63, 95); fill-opacity: 1; white-space: pre;">1</text></g></g><g class="overaxes-above"/></g></g><g class="polarlayer"/><g class="ternarylayer"/><g class="geolayer"/><g class="funnelarealayer"/><g class="pielayer"/><g class="treemaplayer"/><g class="sunburstlayer"/><g class="glimages"/><defs id="topdefs-f51dd3"><g class="clips"/><clipPath id="legendf51dd3"><rect width="146" height="64" x="0" y="0"/></clipPath></defs><g class="layer-above"><g class="imagelayer"/><g class="shapelayer"/></g><g class="infolayer"><g class="legend" pointer-events="all" transform="translate(1041.8600000000001,60)"><rect class="bg" shape-rendering="crispEdges" width="146" height="64" x="0" y="0" style="stroke: rgb(68, 68, 68); stroke-opacity: 1; fill: rgb(255, 255, 255); fill-opacity: 1; stroke-width: 0px;"/><g class="scrollbox" transform="" clip-path="url('#legendf51dd3')"><text class="legendtitletext" text-anchor="start" x="2" y="15.600000000000001" style="font-family: 'Open Sans', verdana, arial, sans-serif; font-size: 12px; fill: rgb(42, 63, 95); fill-opacity: 1; white-space: pre;">variable</text><g class="groups" transform=""><g class="traces" transform="translate(0,30.1)" style="opacity: 1;"><text class="legendtext" text-anchor="start" x="40" y="4.680000000000001" style="font-family: 'Open Sans', verdana, arial, sans-serif; font-size: 12px; fill: rgb(42, 63, 95); fill-opacity: 1; white-space: pre;">unavailable_rate</text><g class="layers" style="opacity: 1;"><g class="legendfill"/><g class="legendlines"><path class="js-line" d="M5,0h30" style="fill: none; stroke: rgb(71, 92, 118); stroke-opacity: 1; stroke-width: 2px;"/></g><g class="legendsymbols"><g class="legendpoints"/></g></g><rect class="legendtoggle" x="0" y="-9.5" width="140.25" height="19" style="fill: rgb(0, 0, 0); fill-opacity: 0;"/></g></g><g class="groups" transform=""><g class="traces" transform="translate(0,49.1)" style="opacity: 1;"><text class="legendtext" text-anchor="start" x="40" y="4.680000000000001" style="font-family: 'Open Sans', verdana, arial, sans-serif; font-size: 12px; fill: rgb(42, 63, 95); fill-opacity: 1; white-space: pre;">review_per_day</text><g class="layers" style="opacity: 1;"><g class="legendfill"/><g class="legendlines"><path class="js-line" d="M5,0h30" style="fill: none; stroke: rgb(250, 211, 102); stroke-opacity: 1; stroke-width: 2px;"/></g><g class="legendsymbols"><g class="legendpoints"/></g></g><rect class="legendtoggle" x="0" y="-9.5" width="140.25" height="19" style="fill: rgb(0, 0, 0); fill-opacity: 0;"/></g></g></g><rect class="scrollbar" rx="20" ry="3" width="0" height="0" x="0" y="0" style="fill: rgb(128, 139, 164); fill-opacity: 1;"/></g><g class="g-gtitle"><text class="gtitle" x="60" y="30" text-anchor="start" dy="0em" style="font-family: 'Open Sans', verdana, arial, sans-serif; font-size: 17px; fill: rgb(42, 63, 95); opacity: 1; font-weight: normal; white-space: pre;"><tspan class="line" dy="0em" x="60" y="30">Unavailable rate vs. Review per day</tspan><tspan class="line" dy="1.3em" x="60" y="30">Outliers</tspan></text></g><g class="g-xtitle"><text class="xtitle" x="551.5" y="760.3" text-anchor="middle" style="font-family: 'Open Sans', verdana, arial, sans-serif; font-size: 14px; fill: rgb(42, 63, 95); opacity: 1; font-weight: normal; white-space: pre;">listing_id</text></g><g class="g-ytitle"><text class="ytitle" transform="rotate(-90,34.575,390)" x="34.575" y="390" text-anchor="middle" style="font-family: 'Open Sans', verdana, arial, sans-serif; font-size: 14px; fill: rgb(42, 63, 95); opacity: 1; font-weight: normal; white-space: pre;">Rate</text></g></g></svg>