<svg class="main-svg" xmlns="http://www.w3.org/2000/svg" xmlns:xlink="http://www.w3.org/1999/xlink" width="1200" height="800" style="" viewBox="0 0 1200 800"><rect x="0" y="0" width="1200" height="800" style="fill: rgb(255, 255, 255); fill-opacity: 1;"/><defs id="defs-1579b9"><g class="clips"><clipPath id="clip1579b9xyplot" class="plotclip"><rect width="933" height="660"/></clipPath><clipPath class="axesclip" id="clip1579b9x"><rect x="80" y="0" width="933" height="800"/></clipPath><clipPath class="axesclip" id="clip1579b9y"><rect x="0" y="60" width="1200" height="660"/></clipPath><clipPath class="axesclip" id="clip1579b9xy"><rect x="80" y="60" width="933" height="660"/></clipPath></g><g class="gradients"/></defs><g class="bglayer"/><g class="layer-below"><g class="imagelayer"/><g class="shapelayer"/></g><g class="cartesianlayer"><g class="subplot xy"><g class="layer-subplot"><g class="shapelayer"/><g class="imagelayer"/></g><g class="gridlayer"><g class="x"><path class="xgrid crisp" transform="translate(240.27,0)" d="M0,60v660" style="stroke: rgb(235, 240, 248); stroke-opacity: 1; stroke-width: 1px;"/><path class="xgrid crisp" transform="translate(425.6,0)" d="M0,60v660" style="stroke: rgb(235, 240, 248); stroke-opacity: 1; stroke-width: 1px;"/><path class="xgrid crisp" transform="translate(610.92,0)" d="M0,60v660" style="stroke: rgb(235, 240, 248); stroke-opacity: 1; stroke-width: 1px;"/><path class="xgrid crisp" transform="translate(796.25,0)" d="M0,60v660" style="stroke: rgb(235, 240, 248); stroke-opacity: 1; stroke-width: 1px;"/><path class="xgrid crisp" transform="translate(981.57,0)" d="M0,60v660" style="stroke: rgb(235, 240, 248); stroke-opacity: 1; stroke-width: 1px;"/></g><g class="y"><path class="ygrid crisp" transform="translate(0,568.2)" d="M80,0h933" style="stroke: rgb(235, 240, 248); stroke-opacity: 1; stroke-width: 1px;"/><path class="ygrid crisp" transform="translate(0,449.4)" d="M80,0h933" style="stroke: rgb(235, 240, 248); stroke-opacity: 1; stroke-width: 1px;"/><path class="ygrid crisp" transform="translate(0,330.6)" d="M80,0h933" style="stroke: rgb(235, 240, 248); stroke-opacity: 1; stroke-width: 1px;"/><path class="ygrid crisp" transform="translate(0,211.8)" d="M80,0h933" style="stroke: rgb(235, 240, 248); stroke-opacity: 1; stroke-width: 1px;"/><path class="ygrid crisp" transform="translate(0,93)" d="M80,0h933" style="stroke: rgb(235, 240, 248); stroke-opacity: 1; stroke-width: 1px;"/></g></g><g class="zerolinelayer"><path class="yzl zl crisp" transform="translate(0,687)" d="M80,0h933" style="stroke: rgb(235, 240, 248); stroke-opacity: 1; stroke-width: 2px;"/></g><path class="xlines-below"/><path class="ylines-below"/><g class="overlines-below"/><g class="xaxislayer-below"/><g class="yaxislayer-below"/><g class="overaxes-below"/><g class="plot" transform="translate(80,60)" clip-path="url('#clip1579b9xyplot')"><g class="scatterlayer mlayer"><g class="trace scatter trace1a736b" style="stroke-miterlimit: 2; opacity: 1;"><g class="fills"/><g class="errorbars"/><g class="lines"><path class="js-line" d="M0,145.29L1.06,78.57L4.34,133.9L4.58,189.23L10.66,127.39L16.74,60.67L17.4,36.25L31.56,36.25L37.03,184.35L39.25,59.04L40.23,176.21L47.36,177.84L47.76,150.17L53.14,41.14L70.43,33L87.02,33L88.04,50.9L109.99,225.03L110.42,36.25L113.5,41.14L138.21,185.98L138.86,36.25L143.48,168.07L179.62,49.27L196.16,177.84L199.76,33L203.6,111.12L209.02,171.33L210.3,36.25L235.18,33L249.07,36.25L264.51,33L290.15,65.55L302.46,33L307.12,36.25L307.94,33L320.47,33L323.94,33L324.6,177.84L328.24,33L328.9,34.63L332.61,198.99L352.56,42.76L352.82,116L357.65,207.13L365.23,33L380.77,166.45L382.26,117.62L382.81,94.84L392.59,33L396.57,33L398.16,233.17L400.87,104.61L406.01,158.31L409.41,33L410.57,33L421.99,55.78L429.6,36.25L437.88,130.64L480.7,210.39L483.45,194.11L483.64,33L493.3,138.78L501.84,33L531.12,161.56L537.09,91.59L539.43,33L550.47,33L551.93,33L558.02,63.92L560.34,161.56L562.64,33L571.4,33L576.34,163.19L605.88,33L615.75,63.92L624.68,122.51L626.13,75.31L632.29,65.55L640.27,145.29L643.93,133.9L644.83,106.23L644.87,65.55L649.07,229.92L653.49,177.84L664.15,33L677.39,36.25L681.01,231.54L685.48,221.78L692.5,229.92L694.15,117.62L697.93,229.92L700.02,228.29L700.18,226.66L701.26,226.66L701.4,41.14L704.13,223.41L704.58,36.25L705.67,220.15L707.14,218.52L707.19,146.92L709.03,177.84L709.08,33L710.4,216.9L711.8,33L712.33,198.99L713.93,212.01L715.21,210.39L716.25,210.39L716.25,210.39L721.21,203.88L721.97,122.51L724.72,200.62L725.07,200.62L725.7,85.08L726.21,187.6L727.19,177.84L728.25,195.74L732.36,192.48L734.25,190.86L734.31,33L734.49,208.76L735.68,184.35L738.58,33L739.76,33L746.1,179.47L749.09,177.84L750.47,33L753.54,215.27L755.98,168.07L757.14,33L757.39,177.84L760.19,50.9L771.56,150.17L772.63,150.17L784.45,138.78L787.25,228.29L788.79,89.96L790.3,177.84L790.37,132.27L791.49,33L791.73,132.27L793.05,168.07L793.26,129.02L794.82,221.78L794.93,106.23L794.97,127.39L796.4,158.31L801.7,122.51L806.11,117.62L807.47,116L807.83,111.12L807.97,76.94L811.06,112.74L811.23,112.74L811.98,111.12L814.6,132.27L814.78,177.84L815.25,107.86L817.66,106.23L817.78,33L817.97,177.84L818,60.67L819.78,132.27L819.81,93.21L821.56,101.35L821.74,106.23L822.77,36.25L824.6,159.94L824.79,65.55L826.21,138.78L827.07,55.78L827.36,96.47L829.34,129.02L830.86,109.49L831.18,91.59L831.25,89.96L832.35,94.84L832.53,80.19L832.88,88.33L835.07,88.33L835.68,88.33L837.12,63.92L838,171.33L838.02,94.84L838.19,85.08L839.6,85.08L839.73,184.35L841.19,81.82L842.67,33L843.06,81.82L843.37,36.25L846.72,78.57L846.91,47.65L846.91,78.57L848.97,80.19L852.99,161.56L853.13,70.43L854.32,177.84L854.5,68.8L856.14,68.8L856.32,192.48L856.79,67.18L858.1,138.78L858.3,65.55L859.44,65.55L861.04,33L862.34,62.29L862.47,60.67L864.27,59.04L864.52,59.04L865.57,176.21L866.18,57.41L867.19,151.8L867.87,39.51L870.48,59.04L873.15,70.43L873.43,85.08L873.49,177.84L873.73,33L875.29,47.65L876.91,76.94L879.07,76.94L880.67,44.39L884.19,158.31L885.15,39.51L885.16,41.14L887.06,36.25L889.4,34.63L890.36,73.68L891.12,146.92L891.23,39.51L892.34,33L892.34,41.14L893.18,166.45L893.25,33L894.36,129.02L895.92,33L895.99,164.82L898,76.94L898.01,116L899.23,129.02L899.26,33L899.36,49.27L901.09,166.45L903.05,33L903.34,177.84L903.5,33L904.04,54.16L904.45,166.45L904.84,33L904.99,213.64L907.17,127.39L907.2,37.88L908.64,50.9L911.25,41.14L911.62,46.02L913.25,78.57L913.27,176.21L914.12,54.16L914.6,59.04L916.19,156.68L916.2,140.41L919.07,88.33L919.36,93.21L920.54,68.8L921.09,34.63L923.35,37.88L923.36,34.63L924.7,44.39L924.81,39.51L924.94,63.92L926.35,176.21L929.29,138.78L929.3,55.78L931.18,34.63L933,33" style="vector-effect: non-scaling-stroke; fill: none; stroke: rgb(71, 92, 118); stroke-opacity: 1; stroke-width: 2px; opacity: 1;"/></g><g class="points"/><g class="text"/></g><g class="trace scatter tracecf92b0" style="stroke-miterlimit: 2; opacity: 1;"><g class="fills"/><g class="errorbars"/><g class="lines"><path class="js-line" d="M0,627L1.06,624.92L4.34,621.94L4.58,624.84L10.66,625.13L16.74,626.08L17.4,621.85L17.4,624.29L17.4,623.84L31.56,626.29L37.03,621.61L39.25,626.48L40.23,627L47.36,626.41L47.76,624.66L53.14,621.23L70.43,623.83L87.02,622.29L88.04,624.37L109.99,622.65L110.42,621.28L113.5,624.24L138.21,627L138.86,622.58L143.48,627L179.62,627L203.6,627L209.02,623.77L210.3,622.97L235.18,627L249.07,627L264.51,625.98L290.15,620.94L302.46,623.58L307.12,627L307.94,624.02L320.47,623.49L323.27,627L324.6,622.34L328.24,623.31L328.9,620.93L332.61,622.16L352.56,627L352.82,623.31L357.65,627L365.23,621.73L380.77,627L382.26,623.97L382.81,627L392.59,627L396.57,622.57L398.16,623.76L400.87,627L406.01,627L410.57,622.86L421.99,627L429.6,623.12L437.88,627L483.64,621.77L493.3,627L501.84,622.6L531.12,621L537.09,623.75L539.43,623.31L551.93,620.84L558.02,624L560.34,621.5L562.64,627L571.4,620.94L576.34,624.29L605.88,622.01L615.75,627L624.68,627L626.13,622.32L632.27,622.5L632.29,627L640.27,627L643.93,622.85L644.83,622.79L644.87,627L649.07,627L653.49,623.26L664.15,627L677.39,627L681.01,621.5L685.48,622.05L692.5,627L694.15,627L697.93,622.29L700.02,627L700.18,622.36L701.26,627L701.4,622.57L704.13,622.29L704.58,621.79L705.67,627L707.19,627L709.03,622.63L709.08,627L710.4,627L712.33,627L713.93,622.6L715.21,627L716.22,621.79L716.25,627L721.21,627L721.97,621.83L724.72,627L725.7,621.06L726.21,627L732.36,627L732.41,621.34L734.25,621L734.31,627L749.09,627L750.47,621.4L753.54,627L755.98,627L933,627" style="vector-effect: non-scaling-stroke; fill: none; stroke: rgb(250, 211, 102); stroke-opacity: 1; stroke-width: 2px; opacity: 1;"/></g><g class="points"/><g class="text"/></g></g></g><g class="overplot"/><path class="xlines-above crisp" d="M0,0" style="fill: none;"/><path class="ylines-above crisp" d="M0,0" style="fill: none;"/><g class="overlines-above"/><g class="xaxislayer-above"><g class="xtick"><text text-anchor="middle" x="0" y="733" transform="translate(240.27,0)" style="font-family: 'Open Sans', verdana, arial, sans-serif; font-size: 12px; fill: rgb(42, 63, 95); fill-opacity: 1; white-space: pre;">2M</text></g><g class="xtick"><text text-anchor="middle" x="0" y="733" transform="translate(425.6,0)" style="font-family: 'Open Sans', verdana, arial, sans-serif; font-size: 12px; fill: rgb(42, 63, 95); fill-opacity: 1; white-space: pre;">4M</text></g><g class="xtick"><text text-anchor="middle" x="0" y="733" transform="translate(610.92,0)" style="font-family: 'Open Sans', verdana, arial, sans-serif; font-size: 12px; fill: rgb(42, 63, 95); fill-opacity: 1; white-space: pre;">6M</text></g><g class="xtick"><text text-anchor="middle" x="0" y="733" transform="translate(796.25,0)" style="font-family: 'Open Sans', verdana, arial, sans-serif; font-size: 12px; fill: rgb(42, 63, 95); fill-opacity: 1; white-space: pre;">8M</text></g><g class="xtick"><text text-anchor="middle" x="0" y="733" transform="translate(981.57,0)" style="font-family: 'Open Sans', verdana, arial, sans-serif; font-size: 12px; fill: rgb(42, 63, 95); fill-opacity: 1; white-space: pre;">10M</text></g></g><g class="yaxislayer-above"><g class="ytick"><text text-anchor="end" x="79" y="4.199999999999999" transform="translate(0,687)" style="font-family: 'Open Sans', verdana, arial, sans-serif; font-size: 12px; fill: rgb(42, 63, 95); fill-opacity: 1; white-space: pre;">0</text></g><g class="ytick"><text text-anchor="end" x="79" y="4.199999999999999" transform="translate(0,568.2)" style="font-family: 'Open Sans', verdana, arial, sans-serif; font-size: 12px; fill: rgb(42, 63, 95); fill-opacity: 1; white-space: pre;">0.2</text></g><g class="ytick"><text text-anchor="end" x="79" y="4.199999999999999" transform="translate(0,449.4)" style="font-family: 'Open Sans', verdana, arial, sans-serif; font-size: 12px; fill: rgb(42, 63, 95); fill-opacity: 1; white-space: pre;">0.4</text></g><g class="ytick"><text text-anchor="end" x="79" y="4.199999999999999" transform="translate(0,330.6)" style="font-family: 'Open Sans', verdana, arial, sans-serif; font-size: 12px; fill: rgb(42, 63, 95); fill-opacity: 1; white-space: pre;">0.6</text></g><g class="ytick"><text text-anchor="end" x="79" y="4.199999999999999" transform="translate(0,211.8)" style="font-family: 'Open Sans', verdana, arial, sans-serif; font-size: 12px; fill: rgb(42, 63, 95); fill-opacity: 1; white-space: pre;">0.8</text></g><g class="ytick"><text text-anchor="end" x="79" y="4.199999999999999" transform="translate(0,93)" style="font-family: 'Open Sans', verdana, arial, sans-serif; font-size: 12px; fill: rgb(42, 63, 95); fill-opacity: 1; white-space: pre;">1</text></g></g><g class="overaxes-above"/></g></g><g class="polarlayer"/><g class="ternarylayer"/><g class="geolayer"/><g class="funnelarealayer"/><g class="pielayer"/><g class="treemaplayer"/><g class="sunburstlayer"/><g class="glimages"/><defs id="topdefs-1579b9"><g class="clips"/><clipPath id="legend1579b9"><rect width="156" height="64" x="0" y="0"/></clipPath></defs><g class="layer-above"><g class="imagelayer"/><g class="shapelayer"/></g><g class="infolayer"><g class="legend" pointer-events="all" transform="translate(1031.6599999999999,60)"><rect class="bg" shape-rendering="crispEdges" style="stroke: rgb(68, 68, 68); stroke-opacity: 1; fill: rgb(255, 255, 255); fill-opacity: 1; stroke-width: 0px;" width="156" height="64" x="0" y="0"/><g class="scrollbox" transform="" clip-path="url('#legend1579b9')"><text class="legendtitletext" text-anchor="start" x="2" y="15.600000000000001" style="font-family: 'Open Sans', verdana, arial, sans-serif; font-size: 12px; fill: rgb(42, 63, 95); fill-opacity: 1; white-space: pre;">variable</text><g class="groups" transform=""><g class="traces" transform="translate(0,30.1)" style="opacity: 1;"><text class="legendtext" text-anchor="start" x="40" y="4.680000000000001" style="font-family: 'Open Sans', verdana, arial, sans-serif; font-size: 12px; fill: rgb(42, 63, 95); fill-opacity: 1; white-space: pre;">unavailability_365</text><g class="layers" style="opacity: 1;"><g class="legendfill"/><g class="legendlines"><path class="js-line" d="M5,0h30" style="fill: none; stroke: rgb(71, 92, 118); stroke-opacity: 1; stroke-width: 2px;"/></g><g class="legendsymbols"><g class="legendpoints"/></g></g><rect class="legendtoggle" x="0" y="-9.5" width="150.203125" height="19" style="fill: rgb(0, 0, 0); fill-opacity: 0;"/></g></g><g class="groups" transform=""><g class="traces" transform="translate(0,49.1)" style="opacity: 1;"><text class="legendtext" text-anchor="start" x="40" y="4.680000000000001" style="font-family: 'Open Sans', verdana, arial, sans-serif; font-size: 12px; fill: rgb(42, 63, 95); fill-opacity: 1; white-space: pre;">reviews_per_day</text><g class="layers" style="opacity: 1;"><g class="legendfill"/><g class="legendlines"><path class="js-line" d="M5,0h30" style="fill: none; stroke: rgb(250, 211, 102); stroke-opacity: 1; stroke-width: 2px;"/></g><g class="legendsymbols"><g class="legendpoints"/></g></g><rect class="legendtoggle" x="0" y="-9.5" width="150.203125" height="19" style="fill: rgb(0, 0, 0); fill-opacity: 0;"/></g></g></g><rect class="scrollbar" rx="20" ry="3" width="0" height="0" style="fill: rgb(128, 139, 164); fill-opacity: 1;" x="0" y="0"/></g><g class="g-gtitle"><text class="gtitle" x="60" y="30" text-anchor="start" dy="0em" style="font-family: 'Open Sans', verdana, arial, sans-serif; font-size: 17px; fill: rgb(42, 63, 95); opacity: 1; font-weight: normal; white-space: pre;"><tspan class="line" dy="0em" x="60" y="30">Unavailability per day vs. reviews per day</tspan><tspan class="line" dy="1.3em" x="60" y="30">Outliers</tspan></text></g><g class="g-xtitle"><text class="xtitle" x="546.5" y="760.3" text-anchor="middle" style="font-family: 'Open Sans', verdana, arial, sans-serif; font-size: 14px; fill: rgb(42, 63, 95); opacity: 1; font-weight: normal; white-space: pre;">index</text></g><g class="g-ytitle"><text class="ytitle" transform="rotate(-90,34.575,390)" x="34.575" y="390" text-anchor="middle" style="font-family: 'Open Sans', verdana, arial, sans-serif; font-size: 14px; fill: rgb(42, 63, 95); opacity: 1; font-weight: normal; white-space: pre;">Rate</text></g></g></svg>